<svg width="42" height="45" viewBox="0 0 42 45" fill="none" xmlns="http://www.w3.org/2000/svg">
<path d="M12.7202 26.0463C12.345 27.9181 10.8578 36.644 10.4174 39.1101C10.3849 39.2864 10.3095 39.3534 10.0953 39.3534H2.10741C1.91998 39.3546 1.73449 39.3188 1.56366 39.2486C1.39283 39.1783 1.24069 39.0753 1.11766 38.9466C0.994639 38.8179 0.903637 38.6664 0.850892 38.5027C0.798147 38.3389 0.784905 38.1667 0.812074 37.9979L7.08828 1.74056C7.17472 1.28021 7.43704 0.862469 7.82892 0.561077C8.2208 0.259686 8.71704 0.0940294 9.23004 0.0933526C25.54 0.0933526 26.9107 -0.266975 31.076 1.20553C37.5115 3.47669 38.1009 8.95647 35.7878 14.8839C33.485 20.9877 28.0244 23.6098 20.7853 23.6878C16.1385 23.7564 13.3422 23.0046 12.722 26.0463H12.7202ZM39.033 12.0169C38.8394 11.8906 38.7657 11.8406 38.7109 12.1433C38.486 13.2548 38.171 14.3497 37.7685 15.419C33.4953 26.5142 21.6522 25.5487 15.8695 25.5487C15.2167 25.5487 14.7883 25.87 14.7027 26.4643C12.2833 40.1521 11.8001 43.0082 11.8001 43.0082C11.6922 43.7008 12.1754 44.2654 12.9344 44.2654H19.7349C20.6567 44.2654 21.4158 43.6508 21.5991 42.8132C21.6745 42.2875 21.4809 43.4075 23.1412 33.9126C23.6346 31.7678 24.673 31.9925 26.2784 31.9925C33.8825 31.9925 39.8143 29.1847 41.5809 21.0438C42.2765 17.6511 42.0743 14.0822 39.033 12.0153V12.0169Z" fill="#CCFF66"/>
</svg>
