<svg width="34" height="42" viewBox="0 0 34 42" fill="none" xmlns="http://www.w3.org/2000/svg">
<path d="M20.5036 15.938C16.3188 14.5322 14.0385 13.4547 14.0385 11.7417C14.0385 10.2941 15.3537 9.46784 17.7009 9.46784C21.9912 9.46784 26.3974 10.962 29.4318 12.3073L31.1459 2.73934C28.7395 1.70132 23.8186 0 17.0163 0C12.2034 0 8.20134 1.1381 5.34196 3.26068C2.36934 5.48101 0.819968 8.69282 0.819968 12.5703C0.819968 19.606 5.5736 22.606 13.2947 25.1452C18.2774 26.7464 19.9323 27.8868 19.9323 29.6463C19.9323 31.35 18.3134 32.3345 15.3974 32.3345C11.7865 32.3345 5.83354 30.7309 1.93438 28.6619L0.199707 38.3368C3.55581 40.0405 9.73527 41.8 16.1489 41.8C21.2346 41.8 25.476 40.7131 28.3354 38.6441C31.5397 36.3702 33.1997 33.0071 33.1997 28.6619C33.1997 21.4679 28.338 18.4679 20.4985 15.9357H20.5036V15.938Z" fill="#CCFF66"/>
</svg>
