<svg width="41" height="41" viewBox="0 0 41 41" fill="none" xmlns="http://www.w3.org/2000/svg">
<g clip-path="url(#clip0_395_51)">
<path d="M27.4428 26.7941C27.4428 26.9703 27.2987 27.1144 27.1225 27.1144L24.4799 27.1024L20.5 22.3578L16.5241 27.0984L13.8776 27.1104C13.7014 27.1104 13.5573 26.9703 13.5573 26.7901C13.5573 26.7141 13.5853 26.642 13.6333 26.5819L18.8424 20.3759L13.6333 14.1738C13.5849 14.1151 13.5581 14.0417 13.5573 13.9656C13.5573 13.7894 13.7014 13.6453 13.8776 13.6453L16.5241 13.6573L20.5 18.4019L24.4759 13.6613L27.1185 13.6493C27.2947 13.6493 27.4388 13.7894 27.4388 13.9696C27.4388 14.0457 27.4108 14.1178 27.3627 14.1778L22.1616 20.3799L27.3707 26.5859C27.4188 26.642 27.4428 26.7181 27.4428 26.7941Z" fill="#05668D"/>
<g filter="url(#filter0_d_395_51)">
<path d="M20.5 38.3975C10.5943 38.3975 2.5625 30.3656 2.5625 20.46C2.5625 10.5543 10.5943 2.52246 20.5 2.52246C30.4057 2.52246 38.4375 10.5543 38.4375 20.46C38.4375 30.3656 30.4057 38.3975 20.5 38.3975ZM20.5 5.56543C12.276 5.56543 5.60547 12.2359 5.60547 20.46C5.60547 28.684 12.276 35.3545 20.5 35.3545C28.724 35.3545 35.3945 28.684 35.3945 20.46C35.3945 12.2359 28.724 5.56543 20.5 5.56543Z" fill="#05668D"/>
</g>
</g>
<defs>
<filter id="filter0_d_395_51" x="-0.4375" y="1.52246" width="41.875" height="41.875" filterUnits="userSpaceOnUse" color-interpolation-filters="sRGB">
<feFlood flood-opacity="0" result="BackgroundImageFix"/>
<feColorMatrix in="SourceAlpha" type="matrix" values="0 0 0 0 0 0 0 0 0 0 0 0 0 0 0 0 0 0 127 0" result="hardAlpha"/>
<feOffset dy="2"/>
<feGaussianBlur stdDeviation="1.5"/>
<feComposite in2="hardAlpha" operator="out"/>
<feColorMatrix type="matrix" values="0 0 0 0 0.0196078 0 0 0 0 0.4 0 0 0 0 0.552941 0 0 0 0.3 0"/>
<feBlend mode="normal" in2="BackgroundImageFix" result="effect1_dropShadow_395_51"/>
<feBlend mode="normal" in="SourceGraphic" in2="effect1_dropShadow_395_51" result="shape"/>
</filter>
<clipPath id="clip0_395_51">
<rect width="41" height="41" fill="white" transform="matrix(1 0 0 -1 0 41)"/>
</clipPath>
</defs>
</svg>
