<svg width="32" height="34" viewBox="0 0 32 34" fill="none" xmlns="http://www.w3.org/2000/svg">
<g filter="url(#filter0_d_645_46)">
<path d="M21.5 9H19.5V7.75C19.5 7.19844 19.0516 6.75 18.5 6.75H13.5C12.9484 6.75 12.5 7.19844 12.5 7.75V9H10.5C10.2234 9 10 9.22344 10 9.5V10C10 10.0687 10.0562 10.125 10.125 10.125H11.0687L11.4547 18.2969C11.4797 18.8297 11.9203 19.25 12.4531 19.25H19.5469C20.0813 19.25 20.5203 18.8313 20.5453 18.2969L20.9312 10.125H21.875C21.9438 10.125 22 10.0687 22 10V9.5C22 9.22344 21.7766 9 21.5 9ZM18.375 9H13.625V7.875H18.375V9Z" fill="#FF6666"/>
</g>
<defs>
<filter id="filter0_d_645_46" x="0" y="0.75" width="32" height="32.5" filterUnits="userSpaceOnUse" color-interpolation-filters="sRGB">
<feFlood flood-opacity="0" result="BackgroundImageFix"/>
<feColorMatrix in="SourceAlpha" type="matrix" values="0 0 0 0 0 0 0 0 0 0 0 0 0 0 0 0 0 0 127 0" result="hardAlpha"/>
<feOffset dy="4"/>
<feGaussianBlur stdDeviation="5"/>
<feComposite in2="hardAlpha" operator="out"/>
<feColorMatrix type="matrix" values="0 0 0 0 1 0 0 0 0 0.4 0 0 0 0 0.4 0 0 0 0.3 0"/>
<feBlend mode="normal" in2="BackgroundImageFix" result="effect1_dropShadow_645_46"/>
<feBlend mode="normal" in="SourceGraphic" in2="effect1_dropShadow_645_46" result="shape"/>
</filter>
</defs>
</svg>
