<svg width="36" height="36" viewBox="0 0 36 36" fill="none" xmlns="http://www.w3.org/2000/svg">
<g filter="url(#filter0_d_575_186)">
<path d="M20.9378 6.84827C21.4988 6.30026 22.2532 5.99548 23.0375 6.00005C23.8218 6.00462 24.5726 6.31816 25.1272 6.87266C25.6818 7.42717 25.9954 8.17793 25.9999 8.96211C26.0045 9.74629 25.6997 10.5007 25.1516 11.0616L24.4815 11.7316L20.2677 7.51827L20.9388 6.84827H20.9378ZM19.5595 8.22734L11.5475 16.2383C11.2197 16.5665 10.9921 16.9813 10.8915 17.4341L10.0121 21.3901C9.99366 21.4724 9.99635 21.558 10.0199 21.639C10.0434 21.72 10.087 21.7937 10.1467 21.8533C10.2063 21.913 10.2801 21.9566 10.3611 21.9801C10.4421 22.0036 10.5277 22.0063 10.61 21.9879L14.5424 21.1136C15.0106 21.0094 15.4394 20.7739 15.7784 20.4346L23.7734 12.4406L19.5595 8.22734Z" fill="#CCFF66"/>
</g>
<defs>
<filter id="filter0_d_575_186" x="0" y="0" width="36" height="36" filterUnits="userSpaceOnUse" color-interpolation-filters="sRGB">
<feFlood flood-opacity="0" result="BackgroundImageFix"/>
<feColorMatrix in="SourceAlpha" type="matrix" values="0 0 0 0 0 0 0 0 0 0 0 0 0 0 0 0 0 0 127 0" result="hardAlpha"/>
<feOffset dy="4"/>
<feGaussianBlur stdDeviation="5"/>
<feComposite in2="hardAlpha" operator="out"/>
<feColorMatrix type="matrix" values="0 0 0 0 0.8 0 0 0 0 1 0 0 0 0 0.4 0 0 0 0.3 0"/>
<feBlend mode="normal" in2="BackgroundImageFix" result="effect1_dropShadow_575_186"/>
<feBlend mode="normal" in="SourceGraphic" in2="effect1_dropShadow_575_186" result="shape"/>
</filter>
</defs>
</svg>
