<svg width="15" height="15" viewBox="0 0 15 15" fill="none" xmlns="http://www.w3.org/2000/svg">
<path d="M7.5 0C5.5183 0.0239086 3.62451 0.821761 2.22313 2.22313C0.821761 3.62451 0.0239086 5.5183 0 7.5C0.0239086 9.4817 0.821761 11.3755 2.22313 12.7769C3.62451 14.1782 5.5183 14.9761 7.5 15C9.4817 14.9761 11.3755 14.1782 12.7769 12.7769C14.1782 11.3755 14.9761 9.4817 15 7.5C14.9761 5.5183 14.1782 3.62451 12.7769 2.22313C11.3755 0.821761 9.4817 0.0239086 7.5 0ZM11.7857 8.03571H8.03571V11.7857H6.96429V8.03571H3.21429V6.96429H6.96429V3.21429H8.03571V6.96429H11.7857V8.03571Z" fill="#05668D"/>
</svg>
