<svg width="15" height="19" viewBox="0 0 15 19" fill="none" xmlns="http://www.w3.org/2000/svg">
<path d="M9.22906 7.24454C7.32686 6.60557 6.29036 6.11576 6.29036 5.33714C6.29036 4.67912 6.88816 4.30356 7.95508 4.30356C9.90524 4.30356 11.908 4.98274 13.2873 5.59421L14.0664 1.24516C12.9726 0.773329 10.7358 0 7.64389 0C5.45625 0 3.63711 0.517316 2.33739 1.48213C0.986195 2.49137 0.281937 3.95128 0.281937 5.71375C0.281937 8.9118 2.44268 10.2754 5.95227 11.4296C8.21713 12.1575 8.96935 12.6758 8.96935 13.4756C8.96935 14.25 8.2335 14.6975 6.90805 14.6975C5.26673 14.6975 2.56083 13.9686 0.788488 13.0281L0 17.4258C1.5255 18.2002 4.33435 19 7.24965 19C9.5613 19 11.4892 18.506 12.789 17.5655C14.2454 16.5319 15 15.0032 15 13.0281C15 9.75813 12.7901 8.39449 9.22672 7.24348H9.22906V7.24454Z" fill="#05668D"/>
</svg>
